# AST/ASF file generated using VICON BodyLanguage
# -----------------------------------------------
:version 1.10
:name VICON
:units
  mass 1.0
  length 0.45
  angle deg
:documentation
   .ast/.asf automatically generated from VICON data using
   VICON BodyBuilder and BodyLanguage model FoxedUp or BRILLIANT.MOD
:root
   order TX TY TZ RX RY RZ
   axis XYZ
   position 0 0 0  
   orientation 0 0 0 
:bonedata
  begin
     id 1 
     name lhipjoint
     direction 0.702568 -0.596508 0.388042 
     length 2.56661 
     axis 0 0 0  XYZ
  end
  begin
     id 2 
     name lfemur
     direction 0.34202 -0.939693 0  
     length 6.58374  
     axis 0 0 20  XYZ
    dof rx ry rz
    limits (-160.0 20.0)
           (-70.0 70.0)
           (-60.0 70.0)
  end
  begin
     id 3 
     name ltibia
     direction 0.34202 -0.939693 0   
     length 6.62538   
     axis 0 0 20   XYZ
    dof rx
    limits (-10.0 170.0)
  end
  begin
     id 4 
     name lfoot
     direction 0.10455 -0.287249 0.952133   
     length 2.26699   
     axis -90 7.62852e-016 20   XYZ
    dof rx rz
    limits (-45.0 90.0)
           (-70.0 20.0)
  end
  begin
     id 5 
     name ltoes
     direction 1.53572e-011 -4.22322e-011 1   
     length 1.12949   
     axis -90 7.62852e-016 20   XYZ
    dof rx
    limits (-90.0 20.0)
  end
  begin
     id 6 
     name rhipjoint
     direction -0.728055 -0.574632 0.373811   
     length 2.66432  
     axis 0 0 0  XYZ 
  end
  begin
     id 7 
     name rfemur
     direction -0.34202 -0.939693 0   
     length 6.66732   
     axis 0 0 -20   XYZ
    dof rx ry rz
    limits (-160.0 20.0)
           (-70.0 70.0)
           (-70.0 60.0)
  end
  begin
     id 8 
     name rtibia
     direction -0.34202 -0.939693 0   
     length 6.59288   
     axis 0 0 -20   XYZ
    dof rx
    limits (-10.0 170.0)
 end
 begin
     id 9 
     name rfoot
     direction -0.119193 -0.327479 0.93731   
     length 2.38061  
     axis -90 -7.62852e-016 -20   XYZ
    dof rx rz
    limits (-45.0 90.0)
           (-20.0 70.0)
  end
  begin
     id 10 
     name rtoes
     direction -1.53547e-011 -4.21827e-011 1   
     length 1.17899   
     axis -90 -7.62852e-016 -20   XYZ
    dof rx
    limits (-90.0 20.0)
  end
  begin
     id 11 
     name lowerback
     direction -0.000416114 0.999912 -0.0132284   
     length 2.12109   
     axis 0 0 0   XYZ
    dof rx ry rz
    limits (-20.0 45.0)
           (-30.0 30.0)
           (-30.0 30.0)
  end
  begin
     id 12 
     name upperback
     direction -0.00136371 0.99809 0.0617608   
     length 2.10067   
     axis 0 0 0   XYZ
    dof rx ry rz
    limits (-20.0 45.0)
           (-30.0 30.0)
           (-30.0 30.0)
  end
  begin
     id 13 
     name thorax
     direction -3.43026e-005 0.997776 0.0666515   
     length 2.10618   
     axis 0 0 0   XYZ
    dof rx ry rz
    limits (-20.0 45.0)
           (-30.0 30.0)
           (-30.0 30.0)
  end
  begin
     id 14 
     name lowerneck
     direction 0.0398646 0.998418 0.0396592   
     length 1.83817   
     axis 0 0 0   XYZ
    dof rx ry rz
    limits (-20.0 45.0)
           (-30.0 30.0)
           (-30.0 30.0)
  end
  begin
     id 15 
     name upperneck
     direction -0.0367268 0.961527 -0.272244   
     length 1.81975   
     axis 0 0 0   XYZ
    dof rx ry rz
    limits (-20.0 45.0)
           (-30.0 30.0)
           (-30.0 30.0)
  end
  begin
     id 16
     name head
     direction -0.0182665 0.99536 -0.0944669  
     length 1.86026  
     axis 0 0 0   XYZ
    dof rx ry rz
    limits (-20.0 45.0)
           (-30.0 30.0)
           (-30.0 30.0)
  end
  begin
     id 17 
     name lclavicle
     direction 0.924239 0.361045 0.124212  
     length 3.26878  
     axis 0 0 0   XYZ
    dof ry rz
    limits (-20.0 10.0)
           (0.0 20.0)
  end
  begin
     id 18 
     name lhumerus
     direction 1 -4.48968e-011 -2.56583e-027   
     length 4.58538   
     axis 180 -30 -90   XYZ
    dof rx ry rz
    limits (-60.0 90.0)
           (-90.0 90.0)
           (-90.0 90.0)
  end
  begin
     id 19
     name lradius
     direction 1 -4.4898e-011 -5.50375e-027   
     length 2.68935   
     axis 180 -30 -90   XYZ
    dof rx
    limits (-10.0 170.0)
  end
  begin
     id 20
     name lwrist
     direction 1 -4.48939e-011 -1.48955e-026   
     length 1.34468   
     axis 9.0955e-015 90 90   XYZ
    dof ry
    limits (-180.0 0.0)
 end
  begin
     id 21 
     name lhand
     direction 1 -4.48936e-011 -2.97907e-026   
     length 0.585058   
     axis 1.90115e-014 90 90   XYZ
    dof rx rz
    limits (-90.0 90.0)
           (-45.0 45.0)
  end
  begin
     id 22 
     name lfingers
     direction 1 -4.49082e-011 -5.96235e-026   
     length 0.471689   
     axis 3.80223e-014 90 90   XYZ
    dof rx
    limits (0.0 90.0)
  end
  begin
     id 23
     name lthumb
     direction 0.707107 -6.3489e-011 0.707107   
     length 0.677253   
     axis -90 45 -3.84942e-014   XYZ
    dof rx rz
    limits (-45.0 45.0)
           (-45.0 45.0)
  end
  begin
     id 24 
     name rclavicle
     direction -0.923098 0.371783 0.0983239   
     length 3.19656  
     axis 0 0 0   XYZ 
    dof ry rz
    limits (-10.0 20.0)
           (-20.0 0.0)
  end
  begin
     id 25 
     name rhumerus
     direction -1 -4.48976e-011 -2.5492e-027  
     length 4.4745   
     axis 180 30 90   XYZ
    dof rx ry rz
    limits (-90.0 60.0)
           (-90.0 90.0)
           (-90.0 90.0)
  end
  begin
     id 26 
     name rradius
     direction -1 -4.48941e-011 -4.36555e-027   
     length 2.93896   
     axis 180 30 90   XYZ
    dof rx
    limits (-10.0 170.0)
  end
  begin
     id 27 
     name rwrist
     direction -1 -4.49044e-011 -1.49032e-026   
     length 1.46948   
     axis 9.0955e-015 -90 -90   XYZ
    dof ry
    limits (-180.0 0.0)
  end
  begin
     id 28
     name rhand
     direction -1 -4.48826e-011 -2.97749e-026   
     length 0.405092   
     axis 1.90115e-014 -90 -90   XYZ
    dof rx rz
    limits (-90.0 90.0)
           (-45.0 45.0)
  end
  begin
     id 29
     name rfingers
     direction -1 -4.49209e-011 -5.96602e-026   
     length 0.326596   
     axis 3.80223e-014 -90 -90   XYZ
    dof rx
    limits (0.0 90.0)
  end
  begin
     id 30
     name rthumb
     direction -0.707107 -6.34776e-011 0.707107   
     length 0.468928   
     axis -90 -45 3.84942e-014   XYZ
    dof rx rz
    limits (-45.0 45.0)
           (-45.0 45.0)
  end
:hierarchy
  begin
    root lhipjoint rhipjoint lowerback
    lhipjoint lfemur
    lfemur ltibia
    ltibia lfoot
    lfoot ltoes
    rhipjoint rfemur
    rfemur rtibia
    rtibia rfoot
    rfoot rtoes
    lowerback upperback
    upperback thorax
    thorax lowerneck lclavicle rclavicle
    lowerneck upperneck
    upperneck head
    lclavicle lhumerus
    lhumerus lradius
    lradius lwrist
    lwrist lhand lthumb
    lhand lfingers
    rclavicle rhumerus
    rhumerus rradius
    rradius rwrist
    rwrist rhand rthumb
    rhand rfingers
  end

#!OML:ASF H:\Punching\Project 1\Capture day 1\Session 1\female.ASF
:FULLY-SPECIFIED
:DEGREES
282
root -1.91311 15.7033 7.50116 11.7429 -4.50984 1.80691
lowerback -0.293601 -0.756441 1.69658
upperback -5.4588 -1.02941 -1.21299
thorax -5.537 -0.629072 -2.16107
lowerneck -3.63549 7.17996 14.3414
upperneck 22.1111 10.4381 -9.77601
head 8.74931 5.29257 -4.74585
rclavicle -7.72309e-015 8.89561e-015
rhumerus -22.4918 30.7742 -87.2266
rradius 82.2335
rwrist -7.10806
rhand -14.1565 -3.67479
rfingers 7.12502
rthumb 11.9782 -33.3121
lclavicle -7.72309e-015 8.89561e-015
lhumerus -29.3567 -29.2883 90.8767
lradius 84.7806
lwrist -0.328609
lhand -7.56791 11.3611
lfingers 7.12502
lthumb 18.3246 40.5179
rfemur -16.6488 -0.204095 19.4237
rtibia 30.3498
rfoot -22.835 -19.4458
rtoes -0.611275
lfemur -26.7422 -4.84093 -8.84315
ltibia 30.1263
lfoot -6.65135 12.3754
ltoes -3.8418
283
root -1.91844 15.7096 7.46318 11.8468 -4.35376 1.81496
lowerback -0.474668 -0.715391 1.75416
upperback -5.5213 -0.973727 -1.18258
thorax -5.49714 -0.603485 -2.16619
lowerneck -3.61424 7.14399 14.3647
upperneck 21.8833 10.3677 -9.75296
head 8.65793 5.26354 -4.7474
rclavicle -2.03653e-014 2.73329e-015
rhumerus -23.0177 30.3058 -87.3997
rradius 81.3256
rwrist -7.35438
rhand -14.3004 -4.01227
rfingers 7.12502
rthumb 11.8395 -33.6576
lclavicle -2.03653e-014 2.73329e-015
lhumerus -31.1806 -28.0052 91.5062
lradius 82.6532
lwrist -1.11126
lhand -7.61722 11.6106
lfingers 7.12502
lthumb 18.2771 40.7719
rfemur -16.7728 -0.0681961 19.4389
rtibia 30.1937
rfoot -22.9515 -19.4551
rtoes -0.350952
lfemur -26.2869 -4.75727 -9.13452
ltibia 30.6995
lfoot -7.43318 11.9272
ltoes -4.71746
284
root -1.92256 15.7152 7.42619 11.9537 -4.18092 1.83525
lowerback -0.648722 -0.684681 1.79871
upperback -5.58642 -0.932402 -1.15294
thorax -5.46458 -0.584541 -2.1639
lowerneck -3.60724 7.11673 14.3799
upperneck 21.6715 10.3082 -9.72209
head 8.57561 5.23911 -4.74335
rclavicle 4.57224e-015 -6.18717e-015
rhumerus -23.5903 29.7977 -87.5871
rradius 80.4262
rwrist -7.57544
rhand -14.3974 -4.38074
rfingers 7.12502
rthumb 11.7459 -34.0314
lclavicle 4.57224e-015 -6.18717e-015
lhumerus -32.8737 -26.6337 91.9809
lradius 80.4976
lwrist -1.6604
lhand -7.58435 11.9152
lfingers 7.12502
lthumb 18.3087 41.0735
rfemur -16.9117 0.0345221 19.4387
rtibia 30.0697
rfoot -23.106 -19.467
rtoes -0.140794
lfemur -25.8276 -4.70113 -9.43237
ltibia 31.2225
lfoot -8.16632 11.4592
ltoes -5.64633
285
root -1.92555 15.7202 7.39021 12.0651 -3.99157 1.86798
lowerback -0.82192 -0.662807 1.83009
upperback -5.65331 -0.903509 -1.12607
thorax -5.43485 -0.571278 -2.15642
lowerneck -3.60297 7.09431 14.3872
upperneck 21.4636 10.254 -9.68002
head 8.49515 5.21725 -4.73349
rclavicle 1.07094e-015 8.19987e-015
rhumerus -24.2037 29.2371 -87.7842
rradius 79.5105
rwrist -7.70763
rhand -14.4521 -4.6964
rfingers 7.12502
rthumb 11.6931 -34.3501
lclavicle 1.07094e-015 8.19987e-015
lhumerus -34.4406 -25.2212 92.318
lradius 78.327
lwrist -1.8881
lhand -7.54333 12.2986
lfingers 7.12502
lthumb 18.3482 41.4532
rfemur -17.0667 0.107536 19.4232
rtibia 29.9768
rfoot -23.2897 -19.4923
rtoes 0.00108176
lfemur -25.3653 -4.66994 -9.73886
ltibia 31.6945
lfoot -8.84993 11.0024
ltoes -6.58311
286
root -1.92718 15.7242 7.35629 12.1624 -3.81536 1.89602
lowerback -0.984484 -0.640959 1.86124
upperback -5.71589 -0.874567 -1.09824
thorax -5.40666 -0.557912 -2.14762
lowerneck -3.59766 7.07834 14.3919
upperneck 21.2575 10.2085 -9.6328
head 8.41616 5.19958 -4.72053
rclavicle 1.84196e-015 2.25124e-014
rhumerus -24.8591 28.624 -87.988
rradius 78.5604
rwrist -7.69073
rhand -14.4526 -4.91801
rfingers 7.12502
rthumb 11.6926 -34.5717
lclavicle 1.84196e-015 2.25124e-014
lhumerus -35.8999 -23.7583 92.5307
lradius 76.1634
lwrist -1.77872
lhand -7.53499 12.7519
lfingers 7.12502
lthumb 18.3562 41.9058
rfemur -17.2142 0.168833 19.4066
rtibia 29.9093
rfoot -23.4847 -19.5174
rtoes 0.0784725
lfemur -24.8631 -4.63626 -10.0456
ltibia 32.1137
lfoot -9.49903 10.5985
ltoes -7.48771
287
root -1.92758 15.7269 7.32428 12.2478 -3.65445 1.9144
lowerback -1.13565 -0.617162 1.89478
upperback -5.77525 -0.842776 -1.06759
thorax -5.38147 -0.543151 -2.13714
lowerneck -3.58501 7.0666 14.393
upperneck 21.0439 10.1696 -9.58367
head 8.33419 5.18494 -4.70585
rclavicle -1.17094e-014 -5.56597e-015
rhumerus -25.5545 27.9542 -88.1901
rradius 77.5601
rwrist -7.48391
rhand -14.413 -5.02925
rfingers 7.12502
rthumb 11.7309 -34.6808
lclavicle -1.17094e-014 -5.56597e-015
lhumerus -37.2446 -22.2957 92.6309
lradius 73.9812
lwrist -1.33674
lhand -7.63187 13.262
lfingers 7.12502
lthumb 18.263 42.4246
rfemur -17.3545 0.226966 19.3943
rtibia 29.8618
rfoot -23.6866 -19.5416
rtoes 0.100371
lfemur -24.3229 -4.59623 -10.347
ltibia 32.4759
lfoot -10.1187 10.2781
ltoes -8.33297
288
root -1.92653 15.7285 7.2945 12.314 -3.51625 1.91605
lowerback -1.27272 -0.589364 1.93685
upperback -5.82817 -0.80517 -1.03283
thorax -5.35733 -0.525718 -2.12716
lowerneck -3.55913 7.05731 14.3976
upperneck 20.8157 10.1357 -9.53891
head 8.24623 5.17271 -4.6931
rclavicle 6.53757e-015 3.8266e-015
rhumerus -26.2924 27.2249 -88.3872
rradius 76.5083
rwrist -7.05914
rhand -14.366 -5.05796
rfingers 7.12502
rthumb 11.7762 -34.7069
lclavicle 6.53757e-015 3.8266e-015
lhumerus -38.4945 -20.7814 92.6155
lradius 71.805
lwrist -0.708558
lhand -7.78561 13.8359
lfingers 7.12502
lthumb 18.1151 43.0123
rfemur -17.4778 0.286315 19.3927
rtibia 29.8291
rfoot -23.8835 -19.5629
rtoes 0.0602085
lfemur -23.7301 -4.55149 -10.6372
ltibia 32.7723
lfoot -10.7139 10.0665
ltoes -9.10339
289
root -1.92388 15.7289 7.26689 12.3574 -3.38506 1.90253
lowerback -1.38965 -0.564033 1.99014
upperback -5.87422 -0.770249 -0.993056
thorax -5.33774 -0.509989 -2.11791
lowerneck -3.52829 7.0516 14.4027
upperneck 20.5798 10.1077 -9.4976
head 8.1561 5.16303 -4.68118
rclavicle 7.51038e-015 -1.04362e-015
rhumerus -27.0662 26.446 -88.5726
rradius 75.3973
rwrist -6.42983
rhand -14.3307 -5.0367
rfingers 7.12502
rthumb 11.8102 -34.6837
lclavicle 7.51038e-015 -1.04362e-015
lhumerus -39.6468 -19.2225 92.4801
lradius 69.6008
lwrist -0.0133945
lhand -8.01279 14.4178
lfingers 7.12502
lthumb 17.8965 43.6143
rfemur -17.5772 0.347127 19.4016
rtibia 29.8108
rfoot -24.0815 -19.582
rtoes 0.00621258
lfemur -23.0841 -4.52349 -10.9129
ltibia 32.9909
lfoot -11.2858 9.97263
ltoes -9.77488
